<?xml version="1.0" encoding="UTF-8"?>
<svg id="Layer_2" data-name="Layer 2" xmlns="http://www.w3.org/2000/svg" viewBox="0 0 590 170.52">
  <defs>
    <style>
      .cls-1 {
        fill: #686d78;
      }

      .cls-2 {
        fill: #ef4130;
      }
    </style>
  </defs>
  <g id="Layer_1-2" data-name="Layer 1">
    <g>
      <g>
        <path class="cls-2" d="M165.17,40.05c-4.11,0-13.4.06-13.4.06,0,0,.11,7.61-.01,14.16,5.84,44.02-10.98,71.05-43.54,85.77-41.86,18.96-84.99-1.28-100.32-34.62-.11-.53-.82-1.7-.95-1.79-.73-.79-1.77-1.3-2.93-1.3-2.23,0-4.02,1.8-4.02,4.01,0,.65.17,1.24.44,1.8,28.92,75.79,103.03,69.52,136.09,46.57,32.44-22.51,53.28-69.54,28.64-114.66"/>
        <path class="cls-2" d="M54.85,11.14c.11,0,.22-.03.32-.04.15-.04.3-.07.45-.09,10.99-2.26,20.75-2.23,26.86-1.15,21.9,3.84,34.51,9.61,51.53,26.15.02.03,13.63,0,13.63,0v-8.65C135.54,13.29,110.82-.01,85.97,0,75.22,0,64.84,1.52,54.22,5.73c-.26.07-.5.16-.73.28-.82.48-1.38,1.36-1.38,2.39,0,1.49,1.23,2.74,2.74,2.74"/>
        <path class="cls-2" d="M40.6,110.01c.13.04.28.06.42.06.06,0,.11-.02.18-.03,50.47,2.38,86.18-24.74,106.45-46.9v-23.04s-4.93-.06-9.61-.06c-14.55,13.25-51.78,27.96-86.06,24.43-.15-.03-.28-.04-.45-.04-.01,0-.02,0-.03,0-.79,0-1.47.49-1.77,1.14-.11.23-.17.49-.19.73-1.79,7.15-7.81,31.2-10.31,40.94-.09.2-.15.43-.17.64,0,.07-.02.13-.02.17,0,.96.68,1.76,1.57,1.94"/>
      </g>
      <g>
        <g>
          <path class="cls-1" d="M577.64,112.06c-6.82,0-12.36-5.46-12.36-12.17s5.54-12.17,12.36-12.17,12.36,5.46,12.36,12.17-5.54,12.17-12.36,12.17ZM577.64,88.89c-6.17,0-11.2,4.94-11.2,11s5.02,11,11.2,11,11.19-4.94,11.19-11-5.02-11-11.19-11Z"/>
          <path class="cls-1" d="M572.58,93.16h5.21c.68,0,1.33.07,1.95.2.61.13,1.15.36,1.62.66.46.31.83.73,1.1,1.25.27.53.41,1.18.41,1.97,0,.95-.25,1.76-.74,2.42-.49.66-1.22,1.09-2.16,1.26l3.42,5.68h-3.55l-2.81-5.38h-1.46v5.38h-2.96v-13.45ZM575.54,98.73h1.75c.27,0,.55,0,.85-.03.3-.02.57-.08.81-.17.24-.09.44-.24.6-.45s.24-.49.24-.86c0-.34-.07-.61-.21-.82-.14-.2-.32-.36-.53-.47-.22-.11-.46-.18-.74-.22-.28-.04-.55-.06-.82-.06h-1.94v3.06Z"/>
        </g>
        <g>
          <path class="cls-1" d="M208.26,40.05h23.13c5.6,0,10.92.63,15.96,1.88,5.04,1.25,9.44,3.28,13.2,6.08,3.76,2.8,6.74,6.44,8.95,10.92,2.21,4.48,3.31,9.92,3.31,16.31,0,5.67-1.07,10.66-3.21,14.97-2.14,4.32-5.03,7.94-8.65,10.87-3.62,2.93-7.81,5.16-12.55,6.67-4.75,1.52-9.72,2.27-14.93,2.27h-25.21V40.05ZM223.68,95.8h8.01c3.56,0,6.87-.36,9.93-1.09,3.06-.72,5.72-1.93,7.96-3.61,2.24-1.68,4-3.89,5.29-6.62,1.29-2.73,1.93-6.08,1.93-10.03,0-3.43-.64-6.41-1.93-8.95-1.28-2.54-3.01-4.63-5.19-6.28-2.17-1.65-4.73-2.88-7.66-3.71-2.93-.82-6.01-1.24-9.24-1.24h-9.09v41.52Z"/>
          <path class="cls-1" d="M311.56,104.01h-.2c-1.65,2.57-3.84,4.42-6.57,5.54-2.73,1.12-5.62,1.68-8.65,1.68-2.24,0-4.4-.31-6.47-.94-2.08-.62-3.9-1.56-5.49-2.82-1.58-1.25-2.83-2.8-3.76-4.65-.92-1.84-1.38-3.99-1.38-6.43,0-2.77.51-5.11,1.53-7.02,1.02-1.91,2.4-3.49,4.15-4.74,1.75-1.25,3.74-2.22,5.98-2.92,2.24-.69,4.56-1.2,6.97-1.53,2.4-.33,4.81-.53,7.21-.59,2.41-.07,4.63-.1,6.67-.1,0-2.64-.94-4.73-2.82-6.28-1.88-1.55-4.1-2.32-6.67-2.32s-4.66.51-6.67,1.53c-2.01,1.02-3.81,2.42-5.39,4.2l-7.91-8.11c2.77-2.57,6-4.5,9.69-5.78,3.69-1.28,7.51-1.93,11.47-1.93,4.35,0,7.92.54,10.73,1.63,2.8,1.09,5.04,2.69,6.72,4.79,1.68,2.11,2.85,4.7,3.51,7.76.66,3.06.99,6.61.99,10.63v24.42h-13.64v-6.03ZM307.9,88.98c-1.12,0-2.52.05-4.2.15-1.68.1-3.3.38-4.84.84-1.55.46-2.87,1.15-3.95,2.08-1.09.92-1.63,2.21-1.63,3.86,0,1.78.76,3.1,2.27,3.95,1.52.86,3.1,1.29,4.75,1.29,1.45,0,2.85-.2,4.2-.59,1.35-.4,2.55-.95,3.61-1.68,1.05-.72,1.89-1.65,2.52-2.77.63-1.12.94-2.44.94-3.95v-3.16h-3.66Z"/>
          <path class="cls-1" d="M349.32,40.05v28.47h.2c.33-.92.89-1.84,1.68-2.77.79-.92,1.75-1.75,2.87-2.47,1.12-.73,2.44-1.32,3.95-1.78,1.51-.46,3.16-.69,4.94-.69,3.76,0,6.79.58,9.09,1.73,2.31,1.15,4.1,2.75,5.39,4.79,1.28,2.04,2.16,4.45,2.62,7.22.46,2.77.69,5.77.69,9v26.49h-14.83v-23.53c0-1.38-.05-2.82-.15-4.3-.1-1.48-.4-2.85-.89-4.1-.49-1.25-1.25-2.27-2.27-3.06-1.02-.79-2.49-1.19-4.4-1.19s-3.46.35-4.65,1.04c-1.19.69-2.09,1.61-2.72,2.77-.63,1.15-1.04,2.46-1.24,3.9-.2,1.45-.3,2.97-.3,4.55v23.92h-14.83V40.05h14.83Z"/>
          <path class="cls-1" d="M393.11,46.28h19.09l27.11,44.31h.18v-44.31h14.05v63.76h-18.37l-27.83-45.39h-.18v45.39h-14.05v-63.76Z"/>
          <path class="cls-1" d="M487.48,46.28h11.62l27.74,63.76h-15.85l-5.49-13.51h-24.76l-5.31,13.51h-15.49l27.56-63.76ZM492.89,64.83l-7.74,19.81h15.58l-7.84-19.81Z"/>
          <path class="cls-1" d="M542.23,82.84l-23.95-36.56h17.47l13.51,23.86,14.32-23.86h16.66l-23.95,36.56v27.2h-14.05v-27.2Z"/>
        </g>
      </g>
      <g>
        <path class="cls-2" d="M238.37,167.36c-1.95,1.09-4.01,1.89-6.17,2.4-2.16.51-4.34.77-6.55.77-2.66,0-5.09-.43-7.3-1.3-2.21-.86-4.12-2.08-5.74-3.65-1.62-1.57-2.87-3.45-3.77-5.64-.9-2.19-1.34-4.62-1.34-7.27s.47-5.13,1.42-7.32c.94-2.19,2.25-4.06,3.91-5.62,1.66-1.55,3.6-2.76,5.81-3.62,2.21-.86,4.59-1.3,7.15-1.3,2.24,0,4.39.34,6.46,1.01s3.91,1.82,5.54,3.46l-3.02,3.17c-1.15-1.25-2.55-2.21-4.2-2.88-1.65-.67-3.34-1.01-5.06-1.01-1.95,0-3.76.35-5.42,1.06-1.66.7-3.11,1.68-4.34,2.93s-2.19,2.74-2.88,4.46c-.69,1.73-1.03,3.62-1.03,5.66s.34,3.89,1.03,5.62c.69,1.73,1.65,3.22,2.88,4.49,1.23,1.26,2.71,2.25,4.44,2.95,1.73.7,3.63,1.06,5.71,1.06,1.38,0,2.82-.17,4.32-.5,1.5-.34,2.88-.82,4.13-1.46v-10.42h-7.82v-3.74h11.86v16.7Z"/>
        <path class="cls-2" d="M246.14,152.52c0-1.02-.03-1.98-.1-2.88-.06-.9-.1-1.71-.1-2.45h3.55c0,.61.02,1.22.05,1.82.03.61.05,1.23.05,1.87h.1c.26-.54.62-1.07,1.08-1.58.46-.51,1.02-.97,1.66-1.37s1.36-.72,2.16-.96c.8-.24,1.66-.36,2.59-.36.26,0,.51.02.77.05.26.03.51.1.77.19l-.24,3.79c-.64-.19-1.31-.29-2.02-.29-2.3,0-3.98.74-5.02,2.23-1.04,1.49-1.56,3.53-1.56,6.12v10.94h-3.74v-17.14Z"/>
        <path class="cls-2" d="M260.88,158.43c0-1.76.3-3.36.91-4.8.61-1.44,1.44-2.68,2.5-3.72,1.06-1.04,2.32-1.85,3.79-2.42,1.47-.58,3.07-.86,4.8-.86s3.33.29,4.8.86c1.47.58,2.74,1.38,3.79,2.42,1.06,1.04,1.89,2.28,2.5,3.72.61,1.44.91,3.04.91,4.8s-.3,3.36-.91,4.8c-.61,1.44-1.44,2.68-2.5,3.72-1.06,1.04-2.32,1.85-3.79,2.42-1.47.58-3.07.86-4.8.86s-3.33-.29-4.8-.86c-1.47-.58-2.74-1.38-3.79-2.42s-1.89-2.28-2.5-3.72c-.61-1.44-.91-3.04-.91-4.8ZM264.91,158.43c0,1.18.18,2.28.55,3.29.37,1.01.9,1.89,1.61,2.64.7.75,1.54,1.34,2.52,1.78.98.43,2.07.65,3.29.65s2.31-.22,3.29-.65c.98-.43,1.82-1.02,2.52-1.78.7-.75,1.24-1.63,1.61-2.64.37-1.01.55-2.1.55-3.29s-.18-2.28-.55-3.29c-.37-1.01-.9-1.89-1.61-2.64-.7-.75-1.54-1.34-2.52-1.78-.98-.43-2.07-.65-3.29-.65s-2.31.22-3.29.65c-.98.43-1.82,1.02-2.52,1.78-.7.75-1.24,1.63-1.61,2.64-.37,1.01-.55,2.1-.55,3.29Z"/>
        <path class="cls-2" d="M314.78,169.66h-3.7l-6.38-17.28h-.1l-5.66,17.28h-3.84l-7.3-22.46h4.13l5.14,17.28h.1l5.81-17.28h3.94l5.9,17.28h.1l5.09-17.28h4.03l-7.25,22.46Z"/>
        <path class="cls-2" d="M363.07,139.42h-11.23v30.24h-4.03v-30.24h-11.23v-3.74h26.5v3.74Z"/>
        <path class="cls-2" d="M367.15,133.37h3.74v16.94h.1c.26-.45.61-.89,1.06-1.32.45-.43.98-.82,1.61-1.18.62-.35,1.32-.64,2.09-.86.77-.22,1.58-.34,2.45-.34,1.47,0,2.74.22,3.82.67,1.07.45,1.96,1.07,2.66,1.87.7.8,1.22,1.77,1.56,2.9s.5,2.38.5,3.72v13.87h-3.74v-13.49c0-1.89-.42-3.38-1.25-4.46-.83-1.09-2.13-1.63-3.89-1.63-1.22,0-2.26.21-3.14.62-.88.42-1.6,1.01-2.16,1.78-.56.77-.98,1.68-1.25,2.74-.27,1.06-.41,2.22-.41,3.5v10.94h-3.74v-36.29Z"/>
        <path class="cls-2" d="M413.9,165.58c-1.34,1.73-2.82,2.94-4.42,3.62-1.6.69-3.46,1.03-5.57,1.03-1.76,0-3.34-.31-4.75-.94s-2.6-1.46-3.58-2.52c-.98-1.06-1.73-2.3-2.26-3.74s-.79-2.98-.79-4.61c0-1.73.29-3.32.86-4.78s1.38-2.7,2.4-3.74c1.02-1.04,2.24-1.85,3.65-2.42s2.94-.86,4.61-.86c1.57,0,3.01.26,4.32.79s2.44,1.3,3.38,2.3c.94,1.01,1.67,2.24,2.18,3.7.51,1.46.77,3.11.77,4.97v1.2h-18.14c.06.96.3,1.88.7,2.76.4.88.92,1.65,1.56,2.3.64.66,1.39,1.18,2.26,1.56s1.81.58,2.83.58c1.63,0,3.01-.29,4.13-.86s2.13-1.42,3.02-2.54l2.83,2.21ZM410.69,156.41c-.06-1.92-.69-3.46-1.87-4.61-1.18-1.15-2.82-1.73-4.9-1.73s-3.76.58-5.04,1.73c-1.28,1.15-2.05,2.69-2.3,4.61h14.11Z"/>
        <path class="cls-2" d="M434.54,135.67h5.09l19.68,28.22h.1v-28.22h4.03v33.98h-5.09l-19.68-28.22h-.1v28.22h-4.03v-33.98Z"/>
        <path class="cls-2" d="M469.92,158.43c0-1.76.3-3.36.91-4.8.61-1.44,1.44-2.68,2.5-3.72,1.06-1.04,2.32-1.85,3.79-2.42,1.47-.58,3.07-.86,4.8-.86s3.33.29,4.8.86,2.74,1.38,3.79,2.42c1.06,1.04,1.89,2.28,2.5,3.72.61,1.44.91,3.04.91,4.8s-.3,3.36-.91,4.8c-.61,1.44-1.44,2.68-2.5,3.72-1.06,1.04-2.32,1.85-3.79,2.42s-3.07.86-4.8.86-3.33-.29-4.8-.86c-1.47-.58-2.74-1.38-3.79-2.42s-1.89-2.28-2.5-3.72c-.61-1.44-.91-3.04-.91-4.8ZM473.95,158.43c0,1.18.18,2.28.55,3.29.37,1.01.9,1.89,1.61,2.64.7.75,1.54,1.34,2.52,1.78.98.43,2.07.65,3.29.65s2.31-.22,3.29-.65c.98-.43,1.82-1.02,2.52-1.78.7-.75,1.24-1.63,1.61-2.64.37-1.01.55-2.1.55-3.29s-.18-2.28-.55-3.29c-.37-1.01-.9-1.89-1.61-2.64-.71-.75-1.54-1.34-2.52-1.78-.98-.43-2.07-.65-3.29-.65s-2.31.22-3.29.65c-.98.43-1.82,1.02-2.52,1.78-.7.75-1.24,1.63-1.61,2.64-.37,1.01-.55,2.1-.55,3.29Z"/>
        <path class="cls-2" d="M523.82,169.66h-3.7l-6.38-17.28h-.1l-5.66,17.28h-3.84l-7.3-22.46h4.13l5.14,17.28h.1l5.81-17.28h3.94l5.9,17.28h.1l5.09-17.28h4.03l-7.25,22.46Z"/>
      </g>
    </g>
  </g>
</svg>